<svg width="196" height="33" viewBox="0 0 196 33" fill="none" xmlns="http://www.w3.org/2000/svg">
<path d="M3.472 26C2.536 26 1.816 25.748 1.312 25.244C0.808 24.74 0.556 24.02 0.556 23.084V3.536C0.556 2.6 0.808 1.88 1.312 1.376C1.816 0.871999 2.536 0.619998 3.472 0.619998H12.184C13.984 0.619998 15.52 0.883999 16.792 1.412C18.064 1.94 19.024 2.696 19.672 3.68C20.344 4.664 20.68 5.84 20.68 7.208C20.68 8.72 20.248 10.004 19.384 11.06C18.52 12.116 17.332 12.824 15.82 13.184V12.608C17.572 12.92 18.928 13.616 19.888 14.696C20.872 15.752 21.364 17.132 21.364 18.836C21.364 21.092 20.584 22.856 19.024 24.128C17.464 25.376 15.316 26 12.58 26H3.472ZM5.884 21.86H11.824C13.264 21.86 14.32 21.584 14.992 21.032C15.664 20.456 16 19.616 16 18.512C16 17.408 15.664 16.58 14.992 16.028C14.32 15.476 13.264 15.2 11.824 15.2H5.884V21.86ZM5.884 11.06H11.212C12.604 11.06 13.636 10.796 14.308 10.268C14.98 9.74 15.316 8.948 15.316 7.892C15.316 6.86 14.98 6.08 14.308 5.552C13.636 5.024 12.604 4.76 11.212 4.76H5.884V11.06ZM31.6353 26.396C30.1473 26.396 28.9113 26.12 27.9273 25.568C26.9433 25.016 26.2113 24.188 25.7313 23.084C25.2753 21.956 25.0473 20.564 25.0473 18.908V10.772C25.0473 9.86 25.2753 9.176 25.7313 8.72C26.2113 8.264 26.8833 8.036 27.7473 8.036C28.6113 8.036 29.2833 8.264 29.7633 8.72C30.2433 9.176 30.4833 9.86 30.4833 10.772V19.052C30.4833 20.108 30.6993 20.9 31.1313 21.428C31.5633 21.932 32.2473 22.184 33.1833 22.184C34.2153 22.184 35.0553 21.824 35.7033 21.104C36.3753 20.36 36.7113 19.388 36.7113 18.188V10.772C36.7113 9.86 36.9393 9.176 37.3953 8.72C37.8753 8.264 38.5473 8.036 39.4113 8.036C40.2993 8.036 40.9713 8.264 41.4273 8.72C41.9073 9.176 42.1473 9.86 42.1473 10.772V23.552C42.1473 25.4 41.2713 26.324 39.5193 26.324C38.6553 26.324 37.9953 26.084 37.5393 25.604C37.0833 25.124 36.8553 24.44 36.8553 23.552V21.14L37.3953 22.544C36.8673 23.768 36.1113 24.716 35.1273 25.388C34.1433 26.06 32.9793 26.396 31.6353 26.396ZM49.1616 26.324C48.2496 26.324 47.5536 26.084 47.0736 25.604C46.5936 25.124 46.3536 24.44 46.3536 23.552V10.772C46.3536 9.884 46.5816 9.212 47.0376 8.756C47.5176 8.276 48.1776 8.036 49.0176 8.036C49.8816 8.036 50.5416 8.276 50.9976 8.756C51.4536 9.212 51.6816 9.884 51.6816 10.772V12.644H51.3216C51.6096 11.204 52.2456 10.088 53.2296 9.296C54.2136 8.504 55.4856 8.06 57.0456 7.964C57.6456 7.916 58.1016 8.072 58.4136 8.432C58.7496 8.768 58.9296 9.332 58.9536 10.124C59.0016 10.868 58.8456 11.456 58.4856 11.888C58.1496 12.32 57.5736 12.584 56.7576 12.68L55.9296 12.752C54.5616 12.872 53.5416 13.268 52.8696 13.94C52.2216 14.612 51.8976 15.584 51.8976 16.856V23.552C51.8976 24.44 51.6576 25.124 51.1776 25.604C50.7216 26.084 50.0496 26.324 49.1616 26.324ZM69.3692 32.876C68.0732 32.876 66.8252 32.768 65.6252 32.552C64.4492 32.336 63.4052 32.012 62.4932 31.58C61.9412 31.34 61.5452 31.028 61.3052 30.644C61.0892 30.26 60.9932 29.852 61.0172 29.42C61.0652 28.988 61.2092 28.604 61.4492 28.268C61.7132 27.932 62.0372 27.692 62.4212 27.548C62.8052 27.428 63.2132 27.464 63.6452 27.656C64.7012 28.136 65.6732 28.448 66.5612 28.592C67.4732 28.736 68.2532 28.808 68.9012 28.808C70.4372 28.808 71.5892 28.46 72.3572 27.764C73.1252 27.068 73.5092 26 73.5092 24.56V21.824H73.8332C73.4732 22.928 72.7292 23.828 71.6012 24.524C70.4732 25.22 69.2252 25.568 67.8572 25.568C66.2732 25.568 64.8932 25.208 63.7172 24.488C62.5412 23.744 61.6292 22.712 60.9812 21.392C60.3332 20.048 60.0092 18.5 60.0092 16.748C60.0092 15.428 60.1892 14.228 60.5492 13.148C60.9332 12.068 61.4612 11.144 62.1332 10.376C62.8292 9.608 63.6572 9.02 64.6172 8.612C65.6012 8.18 66.6812 7.964 67.8572 7.964C69.2732 7.964 70.5212 8.312 71.6012 9.008C72.7052 9.68 73.4372 10.568 73.7972 11.672L73.4372 12.824V10.772C73.4372 9.884 73.6652 9.212 74.1212 8.756C74.6012 8.276 75.2732 8.036 76.1372 8.036C77.0012 8.036 77.6612 8.276 78.1172 8.756C78.5732 9.212 78.8012 9.884 78.8012 10.772V23.948C78.8012 26.9 77.9852 29.12 76.3532 30.608C74.7452 32.12 72.4172 32.876 69.3692 32.876ZM69.4772 21.5C70.2932 21.5 70.9892 21.308 71.5652 20.924C72.1652 20.54 72.6332 20 72.9692 19.304C73.3052 18.584 73.4732 17.732 73.4732 16.748C73.4732 15.26 73.1012 14.108 72.3572 13.292C71.6372 12.452 70.6772 12.032 69.4772 12.032C68.6612 12.032 67.9532 12.224 67.3532 12.608C66.7532 12.968 66.2852 13.508 65.9492 14.228C65.6372 14.924 65.4812 15.764 65.4812 16.748C65.4812 18.236 65.8412 19.4 66.5612 20.24C67.2812 21.08 68.2532 21.5 69.4772 21.5ZM89.5376 26.396C88.0496 26.396 86.8136 26.12 85.8296 25.568C84.8456 25.016 84.1136 24.188 83.6336 23.084C83.1776 21.956 82.9496 20.564 82.9496 18.908V10.772C82.9496 9.86 83.1776 9.176 83.6336 8.72C84.1136 8.264 84.7856 8.036 85.6496 8.036C86.5136 8.036 87.1856 8.264 87.6656 8.72C88.1456 9.176 88.3856 9.86 88.3856 10.772V19.052C88.3856 20.108 88.6016 20.9 89.0336 21.428C89.4656 21.932 90.1496 22.184 91.0856 22.184C92.1176 22.184 92.9576 21.824 93.6056 21.104C94.2776 20.36 94.6136 19.388 94.6136 18.188V10.772C94.6136 9.86 94.8416 9.176 95.2976 8.72C95.7776 8.264 96.4496 8.036 97.3136 8.036C98.2016 8.036 98.8736 8.264 99.3296 8.72C99.8096 9.176 100.05 9.86 100.05 10.772V23.552C100.05 25.4 99.1736 26.324 97.4216 26.324C96.5576 26.324 95.8976 26.084 95.4416 25.604C94.9856 25.124 94.7576 24.44 94.7576 23.552V21.14L95.2976 22.544C94.7696 23.768 94.0136 24.716 93.0296 25.388C92.0456 26.06 90.8816 26.396 89.5376 26.396ZM113.436 26.396C111.348 26.396 109.548 26.024 108.036 25.28C106.548 24.512 105.396 23.444 104.58 22.076C103.788 20.684 103.392 19.052 103.392 17.18C103.392 15.356 103.776 13.76 104.544 12.392C105.312 11 106.38 9.92 107.748 9.152C109.14 8.36 110.712 7.964 112.464 7.964C113.736 7.964 114.888 8.18 115.92 8.612C116.952 9.02 117.84 9.62 118.584 10.412C119.328 11.18 119.892 12.128 120.276 13.256C120.66 14.36 120.852 15.596 120.852 16.964C120.852 17.42 120.708 17.768 120.42 18.008C120.132 18.224 119.712 18.332 119.16 18.332H107.856V15.524H116.928L116.352 16.028C116.352 15.044 116.208 14.228 115.92 13.58C115.632 12.908 115.212 12.404 114.66 12.068C114.132 11.732 113.472 11.564 112.68 11.564C111.792 11.564 111.036 11.768 110.412 12.176C109.788 12.584 109.308 13.172 108.972 13.94C108.636 14.708 108.468 15.632 108.468 16.712V17C108.468 18.824 108.888 20.168 109.728 21.032C110.592 21.896 111.864 22.328 113.544 22.328C114.12 22.328 114.78 22.256 115.524 22.112C116.268 21.968 116.964 21.74 117.612 21.428C118.164 21.164 118.656 21.08 119.088 21.176C119.52 21.248 119.856 21.44 120.096 21.752C120.336 22.064 120.468 22.424 120.492 22.832C120.54 23.24 120.456 23.648 120.24 24.056C120.024 24.44 119.664 24.764 119.16 25.028C118.344 25.484 117.42 25.82 116.388 26.036C115.38 26.276 114.396 26.396 113.436 26.396ZM126.822 26.324C125.91 26.324 125.214 26.084 124.734 25.604C124.254 25.124 124.014 24.44 124.014 23.552V10.772C124.014 9.884 124.242 9.212 124.698 8.756C125.178 8.276 125.838 8.036 126.678 8.036C127.542 8.036 128.202 8.276 128.658 8.756C129.114 9.212 129.342 9.884 129.342 10.772V12.644H128.982C129.27 11.204 129.906 10.088 130.89 9.296C131.874 8.504 133.146 8.06 134.706 7.964C135.306 7.916 135.762 8.072 136.074 8.432C136.41 8.768 136.59 9.332 136.614 10.124C136.662 10.868 136.506 11.456 136.146 11.888C135.81 12.32 135.234 12.584 134.418 12.68L133.59 12.752C132.222 12.872 131.202 13.268 130.53 13.94C129.882 14.612 129.558 15.584 129.558 16.856V23.552C129.558 24.44 129.318 25.124 128.838 25.604C128.382 26.084 127.71 26.324 126.822 26.324Z" fill="black"/>
<path d="M148.838 26C148.11 26 147.55 25.804 147.158 25.412C146.766 25.02 146.57 24.46 146.57 23.732V8.528C146.57 7.8 146.766 7.24 147.158 6.848C147.55 6.456 148.11 6.26 148.838 6.26H154.298C157.677 6.26 160.281 7.11867 162.11 8.836C163.958 10.5347 164.882 12.9613 164.882 16.116C164.882 17.7027 164.639 19.112 164.154 20.344C163.687 21.5573 163.006 22.584 162.11 23.424C161.214 24.264 160.113 24.908 158.806 25.356C157.499 25.7853 155.997 26 154.298 26H148.838ZM150.91 22.444H154.046C155.11 22.444 156.034 22.3133 156.818 22.052C157.602 21.7907 158.255 21.3987 158.778 20.876C159.301 20.3533 159.693 19.7 159.954 18.916C160.215 18.1133 160.346 17.18 160.346 16.116C160.346 13.988 159.814 12.4107 158.75 11.384C157.705 10.3387 156.137 9.816 154.046 9.816H150.91V22.444ZM175.03 26.308C173.406 26.308 172.006 26.0187 170.83 25.44C169.672 24.8427 168.776 24.012 168.142 22.948C167.526 21.8653 167.218 20.596 167.218 19.14C167.218 17.7213 167.516 16.48 168.114 15.416C168.711 14.3333 169.542 13.4933 170.606 12.896C171.688 12.28 172.911 11.972 174.274 11.972C175.263 11.972 176.159 12.14 176.962 12.476C177.764 12.7933 178.455 13.26 179.034 13.876C179.612 14.4733 180.051 15.2107 180.35 16.088C180.648 16.9467 180.798 17.908 180.798 18.972C180.798 19.3267 180.686 19.5973 180.462 19.784C180.238 19.952 179.911 20.036 179.482 20.036H170.69V17.852H177.746L177.298 18.244C177.298 17.4787 177.186 16.844 176.962 16.34C176.738 15.8173 176.411 15.4253 175.982 15.164C175.571 14.9027 175.058 14.772 174.442 14.772C173.751 14.772 173.163 14.9307 172.678 15.248C172.192 15.5653 171.819 16.0227 171.558 16.62C171.296 17.2173 171.166 17.936 171.166 18.776V19C171.166 20.4187 171.492 21.464 172.146 22.136C172.818 22.808 173.807 23.144 175.114 23.144C175.562 23.144 176.075 23.088 176.654 22.976C177.232 22.864 177.774 22.6867 178.278 22.444C178.707 22.2387 179.09 22.1733 179.426 22.248C179.762 22.304 180.023 22.4533 180.21 22.696C180.396 22.9387 180.499 23.2187 180.518 23.536C180.555 23.8533 180.49 24.1707 180.322 24.488C180.154 24.7867 179.874 25.0387 179.482 25.244C178.847 25.5987 178.128 25.86 177.326 26.028C176.542 26.2147 175.776 26.308 175.03 26.308ZM188.835 26.252C188.293 26.252 187.817 26.112 187.407 25.832C186.996 25.5333 186.669 25.0947 186.427 24.516L182.199 14.772C181.993 14.2867 181.919 13.8387 181.975 13.428C182.031 12.9987 182.227 12.6627 182.563 12.42C182.917 12.1587 183.403 12.028 184.019 12.028C184.523 12.028 184.933 12.1493 185.251 12.392C185.568 12.616 185.848 13.0547 186.091 13.708L189.395 22.108H188.499L191.943 13.68C192.204 13.0453 192.493 12.616 192.811 12.392C193.128 12.1493 193.567 12.028 194.127 12.028C194.612 12.028 194.995 12.1587 195.275 12.42C195.573 12.6627 195.751 12.9893 195.807 13.4C195.881 13.8107 195.807 14.2587 195.583 14.744L191.271 24.516C191.028 25.1133 190.701 25.552 190.291 25.832C189.899 26.112 189.413 26.252 188.835 26.252Z" fill="#FF0000"/>
</svg>
